# xmcd CD database file
#
# Track frame offsets:
#	150
#	26060
#	58579
#	82588
#	105103
#	138864
#	172180
#	203572
#	229647
#	256629
#	284074
#	315911
#
# Disc length: 4512 seconds
#
# Revision: 1
# Processed by: cddbd v1.5.1PL0 Copyright (c) Steve Scherf et al.
# Submitted via: CDex 1.51
#
DISCID=8e119e0c
DTITLE=Diana Krall - Live in Paris
DYEAR=2002
DGENRE=Jazz
TTITLE0=I Love Being Here With You
TTITLE1=Let's Fall in Love
TTITLE2=Deed I Do
TTITLE3=The Look of Love
TTITLE4=East of the Sun (and West of the moon)
TTITLE5=I've Got You Under My Skin
TTITLE6=Devil May Care
TTITLE7=Maybe You'll Be There
TTITLE8=S Wonderful
TTITLE9=Fly Me to the Moon
TTITLE10=A Case of You
TTITLE11=Just the Way You Are
EXTD=YEAR: 2002
EXTT0=
EXTT1=
EXTT2=
EXTT3=
EXTT4=
EXTT5=
EXTT6=
EXTT7=
EXTT8=
EXTT9=
EXTT10=
EXTT11=
PLAYORDER=
